<svg width="44" height="44" viewBox="0 0 24 24" fill="none" xmlns="http://www.w3.org/2000/svg">
<g id="fluent:live-20-filled">
<path id="Vector" d="M6.54357 5.00065C6.46346 4.91891 6.36802 4.85376 6.26272 4.80891C6.15741 4.76407 6.04431 4.74041 5.92986 4.7393C5.81541 4.73818 5.70186 4.75963 5.5957 4.80242C5.48955 4.8452 5.39286 4.90849 5.31117 4.98865C4.38711 5.90735 3.65411 6.99992 3.15445 8.20335C2.65479 9.40677 2.39837 10.6972 2.39997 12.0003C2.39847 13.3533 2.67508 14.6922 3.21261 15.9338C3.75015 17.1755 4.53715 18.2934 5.52477 19.2183C5.69099 19.3719 5.91056 19.4547 6.13686 19.4491C6.36315 19.4435 6.57835 19.3499 6.73677 19.1883C7.11597 18.8091 7.06917 18.2055 6.70437 17.8563C5.91177 17.1009 5.28104 16.1923 4.85051 15.1856C4.41999 14.1789 4.19865 13.0951 4.19997 12.0003C4.19997 9.78505 5.08917 7.77625 6.53157 6.31465C6.87957 5.96065 6.91557 5.37265 6.54357 5.00065ZM8.65677 7.11625C8.49873 6.95364 8.28267 6.8603 8.05594 6.85671C7.82921 6.85311 7.61029 6.93954 7.44717 7.09705C6.79791 7.7378 6.28256 8.50127 5.9311 9.34304C5.57964 10.1848 5.3991 11.0881 5.39997 12.0003C5.39856 12.9648 5.60008 13.9188 5.99144 14.8003C6.3828 15.6818 6.95524 16.4712 7.67157 17.1171C7.83627 17.2626 8.05064 17.3391 8.27025 17.3309C8.48987 17.3226 8.69788 17.2301 8.85117 17.0727C9.24477 16.6791 9.17157 16.0599 8.80197 15.7119C8.29534 15.2356 7.89178 14.6605 7.61623 14.0221C7.34069 13.3837 7.19901 12.6956 7.19997 12.0003C7.19997 10.6203 7.74837 9.36745 8.63997 8.44825C8.98317 8.09545 9.03957 7.49785 8.65677 7.11625ZM15.3432 7.11625C15.5012 6.95364 15.7173 6.8603 15.944 6.85671C16.1707 6.85311 16.3896 6.93954 16.5528 7.09705C17.202 7.7378 17.7174 8.50127 18.0688 9.34304C18.4203 10.1848 18.6008 11.0881 18.6 12.0003C18.6014 12.9648 18.3999 13.9188 18.0085 14.8003C17.6171 15.6818 17.0447 16.4712 16.3284 17.1171C16.1637 17.2626 15.9493 17.3391 15.7297 17.3309C15.5101 17.3226 15.3021 17.2301 15.1488 17.0727C14.7552 16.6791 14.8284 16.0599 15.198 15.7119C15.7046 15.2356 16.1082 14.6605 16.3837 14.0221C16.6593 13.3837 16.8009 12.6956 16.8 12.0003C16.8 10.6203 16.2516 9.36745 15.36 8.44825C15.0168 8.09545 14.9604 7.49785 15.3432 7.11625ZM17.4564 5.00185C17.5365 4.92011 17.6319 4.85496 17.7372 4.81011C17.8425 4.76527 17.9556 4.74161 18.0701 4.7405C18.1845 4.73938 18.2981 4.76083 18.4042 4.80362C18.5104 4.8464 18.6071 4.90969 18.6888 4.98985C19.6127 5.90841 20.3456 7.00079 20.8453 8.20399C21.3449 9.4072 21.6014 10.6974 21.6 12.0003C21.6015 13.3533 21.3249 14.6922 20.7873 15.9338C20.2498 17.1755 19.4628 18.2934 18.4752 19.2183C18.3089 19.3719 18.0894 19.4547 17.8631 19.4491C17.6368 19.4435 17.4216 19.3499 17.2632 19.1883C16.884 18.8091 16.9308 18.2055 17.2968 17.8563C18.0892 17.1008 18.7197 16.1921 19.15 15.1854C19.5803 14.1787 19.8014 13.0951 19.8 12.0003C19.8 9.78505 18.9108 7.77625 17.4684 6.31465C17.1204 5.96065 17.0844 5.37265 17.4564 5.00065V5.00185ZM12 10.2003C11.5226 10.2003 11.0647 10.3899 10.7272 10.7275C10.3896 11.065 10.2 11.5229 10.2 12.0003C10.2 12.4776 10.3896 12.9355 10.7272 13.273C11.0647 13.6106 11.5226 13.8003 12 13.8003C12.4774 13.8003 12.9352 13.6106 13.2728 13.273C13.6103 12.9355 13.8 12.4776 13.8 12.0003C13.8 11.5229 13.6103 11.065 13.2728 10.7275C12.9352 10.3899 12.4774 10.2003 12 10.2003Z" fill="url(#paint0_linear_6293_8836)"/>
</g>
<defs>
<linearGradient id="paint0_linear_6293_8836" x1="2.39996" y1="12.1701" x2="18.9261" y2="5.52272" gradientUnits="userSpaceOnUse">
<stop stop-color="#FED292"/>
<stop offset="0.53032" stop-color="#FE9C54"/>
<stop offset="1" stop-color="#FF5907"/>
</linearGradient>
</defs>
</svg>
